# xmcd
#
# Track frame offsets: 
#        150
#        12805
#        27897
#        47376
#        63768
#        81639
#        96189
#        117143
#        133259
#        145148
#        154655
#        166295
#        179431
#        193189
#        204563
#        221994
#        240363
#        252938
#
# Disc length: 3526 seconds
#
# Revision: 2
# Processed by: cddbd v1.5.2PL0 Copyright (c) Steve Scherf et al.
# Submitted via: ExactAudioCopyFreeDBPlugin 1.0
#
DISCID=fa0dc412
DTITLE=Tom Astor and Friends - Duette
DYEAR=2007
DGENRE=Country
TTITLE0=Tom Astor and Billy Swan - Can Help
TTITLE1=Tom Astor and The Bellamy Brothers - I Need More Of You (Ich bra
TTITLE1=uch mehr von dir)
TTITLE2=Tom Astor and Johnny Cash - Johnny Cash Hit Medley: Ring of Fire
TTITLE2=, I Walk The Line, Folsom Prison Blues
TTITLE3=Tom Astor and Kenny Rogers - We Are The Same ( Wir sind alle gle
TTITLE3=ich)
TTITLE4=Tom Astor and Waylon Jennings - I´ve Always Been Crazy (Ich spie
TTITLE4=l mit dem Teufel)
TTITLE5=Tom Astor and Don Williams - I´m Getting Good At Missing You
TTITLE6=Tom Astor and Kris Kristofferson - Me And Bobby McGee
TTITLE7=Tom Astor and Billy Ray Cyrus - Trail Of Tears
TTITLE8=Tom Astor and John Denver - Perhaps Love
TTITLE9=Tom Astor and Charlie McCoy - Rocky Top
TTITLE10=Tom Astor and Emmylou Harris - The Last Time   Geh nicht allein
TTITLE11=Tom Astor and Mark Chesnutt - Honky Tonk Song
TTITLE12=Tom Astor and Lionel Gartwright - Rocky Mountain Man
TTITLE13=Tom Astor and Willie Nelson - Two Stories Wide
TTITLE14=Tom Astor and Joe Sun - Young Eagle (Junger Adler)
TTITLE15=Tom Astor and George Jones - The Cold Hard Truth
TTITLE16=Tom Astor and Grandpa Jones - Old Mountain Dew
TTITLE17=Tom Astor and Wanda Jackson and The Jordanaires - One Night
EXTD=YEAR: 2007
EXTT0=
EXTT1=
EXTT2=
EXTT3=
EXTT4=
EXTT5=
EXTT6=
EXTT7=
EXTT8=
EXTT9=
EXTT10=
EXTT11=
EXTT12=
EXTT13=
EXTT14=
EXTT15=
EXTT16=
EXTT17=
PLAYORDER=
